<mxfile host="app.diagrams.net" modified="2023-07-03T14:26:39.068Z" agent="Mozilla/5.0 (Macintosh; Intel Mac OS X 10_15_7) AppleWebKit/537.36 (KHTML, like Gecko) Chrome/113.0.0.0 Safari/537.36" etag="GcWi3dmWxJJ0StvWyOnn" version="21.3.5" type="github">
  <diagram id="C5RBs43oDa-KdzZeNtuy" name="Page-1">
    <mxGraphModel dx="1050" dy="653" grid="1" gridSize="10" guides="1" tooltips="1" connect="1" arrows="1" fold="1" page="1" pageScale="1" pageWidth="827" pageHeight="1169" math="0" shadow="0">
      <root>
        <mxCell id="WIyWlLk6GJQsqaUBKTNV-0" />
        <mxCell id="WIyWlLk6GJQsqaUBKTNV-1" parent="WIyWlLk6GJQsqaUBKTNV-0" />
        <mxCell id="BpRdan8-40u3xug14TeI-17" style="edgeStyle=orthogonalEdgeStyle;rounded=0;orthogonalLoop=1;jettySize=auto;html=1;exitX=0.5;exitY=1;exitDx=0;exitDy=0;entryX=0.5;entryY=0;entryDx=0;entryDy=0;" edge="1" parent="WIyWlLk6GJQsqaUBKTNV-1" source="BpRdan8-40u3xug14TeI-0" target="BpRdan8-40u3xug14TeI-1">
          <mxGeometry relative="1" as="geometry" />
        </mxCell>
        <mxCell id="BpRdan8-40u3xug14TeI-0" value="Image data file" style="ellipse;whiteSpace=wrap;html=1;" vertex="1" parent="WIyWlLk6GJQsqaUBKTNV-1">
          <mxGeometry x="280" y="120" width="160" height="40" as="geometry" />
        </mxCell>
        <mxCell id="BpRdan8-40u3xug14TeI-18" style="edgeStyle=orthogonalEdgeStyle;rounded=0;orthogonalLoop=1;jettySize=auto;html=1;exitX=0.5;exitY=1;exitDx=0;exitDy=0;entryX=0.5;entryY=0;entryDx=0;entryDy=0;" edge="1" parent="WIyWlLk6GJQsqaUBKTNV-1" source="BpRdan8-40u3xug14TeI-1" target="BpRdan8-40u3xug14TeI-8">
          <mxGeometry relative="1" as="geometry" />
        </mxCell>
        <mxCell id="BpRdan8-40u3xug14TeI-1" value="Read in image data" style="rounded=0;whiteSpace=wrap;html=1;" vertex="1" parent="WIyWlLk6GJQsqaUBKTNV-1">
          <mxGeometry x="240" y="200" width="240" height="40" as="geometry" />
        </mxCell>
        <mxCell id="BpRdan8-40u3xug14TeI-19" style="edgeStyle=orthogonalEdgeStyle;rounded=0;orthogonalLoop=1;jettySize=auto;html=1;exitX=0.5;exitY=1;exitDx=0;exitDy=0;entryX=0.5;entryY=0;entryDx=0;entryDy=0;" edge="1" parent="WIyWlLk6GJQsqaUBKTNV-1" source="BpRdan8-40u3xug14TeI-8" target="BpRdan8-40u3xug14TeI-9">
          <mxGeometry relative="1" as="geometry" />
        </mxCell>
        <mxCell id="BpRdan8-40u3xug14TeI-8" value="Foreground subtraction" style="rounded=0;whiteSpace=wrap;html=1;" vertex="1" parent="WIyWlLk6GJQsqaUBKTNV-1">
          <mxGeometry x="240" y="280" width="240" height="40" as="geometry" />
        </mxCell>
        <mxCell id="BpRdan8-40u3xug14TeI-20" style="edgeStyle=orthogonalEdgeStyle;rounded=0;orthogonalLoop=1;jettySize=auto;html=1;exitX=0.5;exitY=1;exitDx=0;exitDy=0;entryX=0.5;entryY=0;entryDx=0;entryDy=0;" edge="1" parent="WIyWlLk6GJQsqaUBKTNV-1" source="BpRdan8-40u3xug14TeI-9" target="BpRdan8-40u3xug14TeI-10">
          <mxGeometry relative="1" as="geometry" />
        </mxCell>
        <mxCell id="BpRdan8-40u3xug14TeI-9" value="Convert the image data from Jy/beam to K" style="rounded=0;whiteSpace=wrap;html=1;" vertex="1" parent="WIyWlLk6GJQsqaUBKTNV-1">
          <mxGeometry x="240" y="360" width="240" height="40" as="geometry" />
        </mxCell>
        <mxCell id="BpRdan8-40u3xug14TeI-21" style="edgeStyle=orthogonalEdgeStyle;rounded=0;orthogonalLoop=1;jettySize=auto;html=1;exitX=0.5;exitY=1;exitDx=0;exitDy=0;" edge="1" parent="WIyWlLk6GJQsqaUBKTNV-1" source="BpRdan8-40u3xug14TeI-10" target="BpRdan8-40u3xug14TeI-11">
          <mxGeometry relative="1" as="geometry" />
        </mxCell>
        <mxCell id="BpRdan8-40u3xug14TeI-10" value="Convert (MHz, deg, deg) to comoving&lt;br&gt;&amp;nbsp;(Mpc, Mpc, Mpc)" style="rounded=0;whiteSpace=wrap;html=1;" vertex="1" parent="WIyWlLk6GJQsqaUBKTNV-1">
          <mxGeometry x="240" y="440" width="240" height="40" as="geometry" />
        </mxCell>
        <mxCell id="BpRdan8-40u3xug14TeI-22" style="edgeStyle=orthogonalEdgeStyle;rounded=0;orthogonalLoop=1;jettySize=auto;html=1;exitX=0.5;exitY=1;exitDx=0;exitDy=0;entryX=0.5;entryY=0;entryDx=0;entryDy=0;" edge="1" parent="WIyWlLk6GJQsqaUBKTNV-1" source="BpRdan8-40u3xug14TeI-11" target="BpRdan8-40u3xug14TeI-12">
          <mxGeometry relative="1" as="geometry" />
        </mxCell>
        <mxCell id="BpRdan8-40u3xug14TeI-11" value="Compute 2d power spectrum for each frequency bin" style="rounded=0;whiteSpace=wrap;html=1;" vertex="1" parent="WIyWlLk6GJQsqaUBKTNV-1">
          <mxGeometry x="240" y="520" width="240" height="40" as="geometry" />
        </mxCell>
        <mxCell id="BpRdan8-40u3xug14TeI-12" value="2d power spectrum and error" style="ellipse;whiteSpace=wrap;html=1;" vertex="1" parent="WIyWlLk6GJQsqaUBKTNV-1">
          <mxGeometry x="280" y="600" width="160" height="40" as="geometry" />
        </mxCell>
        <mxCell id="BpRdan8-40u3xug14TeI-23" style="edgeStyle=orthogonalEdgeStyle;rounded=0;orthogonalLoop=1;jettySize=auto;html=1;exitX=1;exitY=0.5;exitDx=0;exitDy=0;entryX=0;entryY=0.5;entryDx=0;entryDy=0;" edge="1" parent="WIyWlLk6GJQsqaUBKTNV-1" source="BpRdan8-40u3xug14TeI-15" target="BpRdan8-40u3xug14TeI-11">
          <mxGeometry relative="1" as="geometry" />
        </mxCell>
        <mxCell id="BpRdan8-40u3xug14TeI-15" value="bins_frequency.txt" style="ellipse;whiteSpace=wrap;html=1;" vertex="1" parent="WIyWlLk6GJQsqaUBKTNV-1">
          <mxGeometry y="520" width="160" height="40" as="geometry" />
        </mxCell>
        <mxCell id="BpRdan8-40u3xug14TeI-24" style="edgeStyle=orthogonalEdgeStyle;rounded=0;orthogonalLoop=1;jettySize=auto;html=1;exitX=0;exitY=0.5;exitDx=0;exitDy=0;entryX=1;entryY=0.5;entryDx=0;entryDy=0;" edge="1" parent="WIyWlLk6GJQsqaUBKTNV-1" source="BpRdan8-40u3xug14TeI-16" target="BpRdan8-40u3xug14TeI-11">
          <mxGeometry relative="1" as="geometry" />
        </mxCell>
        <mxCell id="BpRdan8-40u3xug14TeI-16" value="bins_kper.txt&lt;br&gt;bins_kpar.txt" style="ellipse;whiteSpace=wrap;html=1;" vertex="1" parent="WIyWlLk6GJQsqaUBKTNV-1">
          <mxGeometry x="560" y="520" width="160" height="40" as="geometry" />
        </mxCell>
      </root>
    </mxGraphModel>
  </diagram>
</mxfile>
